# xmcd
#
# Track frame offsets: 
#        150
#        15960
#        36070
#        49470
#        73700
#        93450
#        105185
#        120720
#        132915
#        149257
#        185710
#        199962
#
# Disc length: 2906 seconds
#
# Revision: 2
# Processed by: cddbd v1.5.1PL0 Copyright (c) Steve Scherf et al.
# Submitted via: ExactAudioCopy v0.90b4
#
DISCID=a90b580c
DTITLE=Various Artist - Bar Room Blues, A 12 Track Program
DYEAR=2004
DGENRE=Blues
TTITLE0=Tommy Castro - Rip This Joint
TTITLE1=Tab Benoit - I Got Loaded
TTITLE2=Charlie Musselwhite - Cold Grey Light of Dawn
TTITLE3=Kenny Neal - Whiskey Tears
TTITLE4=Doug Wainoris - If the Sea Was Whiskey
TTITLE5=Troy Turner - Later Than You Think
TTITLE6=Junior Wells - Last Hand of the Night
TTITLE7=Sam Lay - Pure Grain Alcohol
TTITLE8=Bob Margolin - My New Baby Owns a Whiskey Store
TTITLE9=Tinsley Ellis - Feelin' No Pain
TTITLE10=Luther "Guitar Junior" Johnson - Meet Me with Your Black Draw
TTITLE10=ers On
TTITLE11=Tab Benoit and Kenny Neal - Night Life
EXTD=
EXTT0=
EXTT1=
EXTT2=
EXTT3=
EXTT4=
EXTT5=
EXTT6=
EXTT7=
EXTT8=
EXTT9=
EXTT10=
EXTT11=
PLAYORDER=
